<svg xmlns="http://www.w3.org/2000/svg" viewBox="0 0 600 360" role="img" aria-labelledby="title">
  <title id="title">Asad Tech BD website snapshot</title>
  <defs>
    <linearGradient id="bg" x1="0" y1="0" x2="1" y2="1">
      <stop offset="0%" stop-color="#111827" />
      <stop offset="100%" stop-color="#221e3d" />
    </linearGradient>
    <linearGradient id="card" x1="0" y1="0" x2="1" y2="1">
      <stop offset="0%" stop-color="#9333ea" />
      <stop offset="100%" stop-color="#f472b6" />
    </linearGradient>
    <linearGradient id="button" x1="0" y1="0" x2="1" y2="0">
      <stop offset="0%" stop-color="#a855f7" />
      <stop offset="100%" stop-color="#f472b6" />
    </linearGradient>
  </defs>
  <rect width="600" height="360" rx="32" fill="url(#bg)" />
  <rect x="36" y="28" width="528" height="304" rx="24" fill="#0f172a" stroke="#ffffff18" stroke-width="2" />
  <rect x="52" y="52" width="496" height="28" rx="14" fill="#ffffff10" />
  <circle cx="82" cy="64" r="5" fill="#fb7185" />
  <circle cx="108" cy="64" r="5" fill="#fbbf24" />
  <circle cx="134" cy="64" r="5" fill="#34d399" />
  <rect x="70" y="100" width="460" height="44" rx="16" fill="#111827" />
  <rect x="92" y="116" width="120" height="14" rx="7" fill="#d8b4fe" />
  <rect x="230" y="116" width="140" height="14" rx="7" fill="#c4b5fd" />
  <rect x="392" y="116" width="90" height="14" rx="7" fill="#c4b5fd" />
  <rect x="70" y="156" width="220" height="112" rx="18" fill="#111827" />
  <rect x="310" y="156" width="130" height="112" rx="18" fill="url(#card)" />
  <rect x="460" y="156" width="90" height="112" rx="18" fill="#6d28d9" />
  <rect x="86" y="180" width="160" height="14" rx="7" fill="#e0e7ff" />
  <rect x="86" y="206" width="128" height="10" rx="5" fill="#d8b4fe" />
  <rect x="86" y="228" width="112" height="10" rx="5" fill="#d8b4fe" />
  <rect x="310" y="180" width="110" height="14" rx="7" fill="#fce7ff" />
  <rect x="310" y="206" width="90" height="10" rx="5" fill="#f5d0fe" />
  <rect x="310" y="228" width="70" height="10" rx="5" fill="#f5d0fe" />
  <rect x="460" y="180" width="70" height="14" rx="7" fill="#ede9fe" />
  <rect x="460" y="206" width="66" height="10" rx="5" fill="#ddd6fe" />
  <rect x="460" y="228" width="52" height="10" rx="5" fill="#ddd6fe" />
  <rect x="78" y="286" width="152" height="14" rx="7" fill="#f472b6" />
  <rect x="252" y="286" width="112" height="14" rx="7" fill="#a855f7" />
  <text x="52" y="317" fill="#e0e7ff" font-family="Inter, sans-serif" font-size="22" font-weight="700">Asad Tech BD</text>
  <text x="52" y="335" fill="#c4b5fd" font-family="Inter, sans-serif" font-size="12">Live product website preview</text>
</svg>