<svg xmlns="http://www.w3.org/2000/svg" viewBox="0 0 600 360" role="img" aria-labelledby="title">
  <title id="title">BookStore website snapshot</title>
  <defs>
    <linearGradient id="bg" x1="0" y1="0" x2="1" y2="1">
      <stop offset="0%" stop-color="#071f1d" />
      <stop offset="100%" stop-color="#0f172a" />
    </linearGradient>
    <linearGradient id="card" x1="0" y1="0" x2="1" y2="1">
      <stop offset="0%" stop-color="#10b981" />
      <stop offset="100%" stop-color="#22c55e" />
    </linearGradient>
  </defs>
  <rect width="600" height="360" rx="32" fill="url(#bg)" />
  <rect x="36" y="30" width="528" height="300" rx="24" fill="#0f172a" stroke="#ffffff18" stroke-width="2" />
  <rect x="52" y="52" width="496" height="28" rx="14" fill="#ffffff10" />
  <circle cx="82" cy="64" r="5" fill="#fb7185" />
  <circle cx="108" cy="64" r="5" fill="#fbbf24" />
  <circle cx="134" cy="64" r="5" fill="#34d399" />
  <rect x="70" y="100" width="460" height="180" rx="18" fill="#031f1a" />
  <rect x="90" y="120" width="140" height="20" rx="10" fill="#f8fafc" />
  <rect x="260" y="120" width="90" height="20" rx="10" fill="#94a3b8" />
  <rect x="380" y="120" width="90" height="20" rx="10" fill="#94a3b8" />
  <rect x="90" y="156" width="420" height="18" rx="9" fill="#ffffff22" />
  <rect x="90" y="184" width="380" height="18" rx="9" fill="#ffffff1f" />
  <rect x="90" y="212" width="360" height="18" rx="9" fill="#ffffff1f" />
  <rect x="90" y="240" width="180" height="120" rx="18" fill="url(#card)" />
  <rect x="290" y="240" width="180" height="120" rx="18" fill="#0f766e" />
  <rect x="490" y="240" width="90" height="120" rx="18" fill="#047857" />
  <rect x="106" y="260" width="140" height="14" rx="7" fill="#ffffff" />
  <rect x="106" y="282" width="96" height="10" rx="5" fill="#d1fae5" />
  <rect x="310" y="260" width="130" height="14" rx="7" fill="#ffffff" />
  <rect x="310" y="282" width="84" height="10" rx="5" fill="#d1fae5" />
  <rect x="506" y="260" width="70" height="14" rx="7" fill="#ffffff" />
  <rect x="506" y="282" width="52" height="10" rx="5" fill="#d1fae5" />
  <text x="52" y="307" fill="#d1fae5" font-family="Inter, sans-serif" font-size="22" font-weight="700">BookStore</text>
  <text x="52" y="325" fill="#86efac" font-family="Inter, sans-serif" font-size="12">Live bookstore preview</text>
</svg>