<svg xmlns="http://www.w3.org/2000/svg" viewBox="0 0 600 360" role="img" aria-labelledby="title">
  <title id="title">JourneyJive website snapshot</title>
  <defs>
    <linearGradient id="bg" x1="0" y1="0" x2="1" y2="1">
      <stop offset="0%" stop-color="#031926" />
      <stop offset="100%" stop-color="#0f172a" />
    </linearGradient>
    <linearGradient id="hero" x1="0" y1="0" x2="1" y2="1">
      <stop offset="0%" stop-color="#2563eb" />
      <stop offset="100%" stop-color="#06b6d4" />
    </linearGradient>
    <linearGradient id="button" x1="0" y1="0" x2="1" y2="0">
      <stop offset="0%" stop-color="#818cf8" />
      <stop offset="100%" stop-color="#a5b4fc" />
    </linearGradient>
  </defs>
  <rect width="600" height="360" rx="32" fill="url(#bg)" />
  <rect x="36" y="28" width="528" height="304" rx="24" fill="#0f172a" stroke="#ffffff18" stroke-width="2" />
  <rect x="52" y="50" width="496" height="28" rx="14" fill="#ffffff10" />
  <circle cx="82" cy="64" r="5" fill="#fb7185" />
  <circle cx="108" cy="64" r="5" fill="#fbbf24" />
  <circle cx="134" cy="64" r="5" fill="#34d399" />
  <rect x="62" y="96" width="476" height="120" rx="20" fill="url(#hero)" />
  <rect x="78" y="112" width="170" height="18" rx="9" fill="#ffffffda" />
  <rect x="78" y="140" width="300" height="14" rx="7" fill="#ffffffb2" />
  <rect x="78" y="164" width="260" height="14" rx="7" fill="#ffffff9a" />
  <rect x="78" y="194" width="180" height="42" rx="22" fill="url(#button)" />
  <rect x="284" y="194" width="142" height="42" rx="22" fill="#ffffff22" />
  <rect x="78" y="242" width="44" height="10" rx="5" fill="#ffffffb2" />
  <rect x="128" y="242" width="84" height="10" rx="5" fill="#ffffff9a" />
  <rect x="220" y="242" width="122" height="10" rx="5" fill="#ffffff9a" />
  <rect x="78" y="266" width="460" height="14" rx="7" fill="#ffffff2a" />
  <rect x="78" y="286" width="320" height="10" rx="5" fill="#ffffff1f" />
  <rect x="428" y="286" width="90" height="10" rx="5" fill="#ffffff1f" />
  <text x="52" y="317" fill="#e2e8f0" font-family="Inter, sans-serif" font-size="22" font-weight="700">JourneyJive</text>
  <text x="52" y="335" fill="#94a3b8" font-family="Inter, sans-serif" font-size="12">Live travel website preview</text>
</svg>